<svg width="389" height="425" viewBox="0 0 389 425" fill="none" xmlns="http://www.w3.org/2000/svg">
<path d="M277.045 3C277.873 3 278.545 2.32843 278.545 1.5C278.545 0.671573 277.873 0 277.045 0C276.216 0 275.545 0.671573 275.545 1.5C275.545 2.32843 276.216 3 277.045 3Z" fill="#4D72FF"/>
<path d="M277.045 17C277.873 17 278.545 16.3284 278.545 15.5C278.545 14.6716 277.873 14 277.045 14C276.216 14 275.545 14.6716 275.545 15.5C275.545 16.3284 276.216 17 277.045 17Z" fill="#4D72FF"/>
<path d="M277.045 31C277.873 31 278.545 30.3284 278.545 29.5C278.545 28.6716 277.873 28 277.045 28C276.216 28 275.545 28.6716 275.545 29.5C275.545 30.3284 276.216 31 277.045 31Z" fill="#4D72FF"/>
<path d="M277.045 45C277.873 45 278.545 44.3284 278.545 43.5C278.545 42.6716 277.873 42 277.045 42C276.216 42 275.545 42.6716 275.545 43.5C275.545 44.3284 276.216 45 277.045 45Z" fill="#4D72FF"/>
<path d="M289.045 3C289.873 3 290.545 2.32843 290.545 1.5C290.545 0.671573 289.873 0 289.045 0C288.216 0 287.545 0.671573 287.545 1.5C287.545 2.32843 288.216 3 289.045 3Z" fill="#4D72FF"/>
<path d="M289.045 17C289.873 17 290.545 16.3284 290.545 15.5C290.545 14.6716 289.873 14 289.045 14C288.216 14 287.545 14.6716 287.545 15.5C287.545 16.3284 288.216 17 289.045 17Z" fill="#4D72FF"/>
<path d="M289.045 31C289.873 31 290.545 30.3284 290.545 29.5C290.545 28.6716 289.873 28 289.045 28C288.216 28 287.545 28.6716 287.545 29.5C287.545 30.3284 288.216 31 289.045 31Z" fill="#4D72FF"/>
<path d="M289.045 45C289.873 45 290.545 44.3284 290.545 43.5C290.545 42.6716 289.873 42 289.045 42C288.216 42 287.545 42.6716 287.545 43.5C287.545 44.3284 288.216 45 289.045 45Z" fill="#4D72FF"/>
<path d="M301.045 3C301.873 3 302.545 2.32843 302.545 1.5C302.545 0.671573 301.873 0 301.045 0C300.216 0 299.545 0.671573 299.545 1.5C299.545 2.32843 300.216 3 301.045 3Z" fill="#4D72FF"/>
<path d="M301.045 17C301.873 17 302.545 16.3284 302.545 15.5C302.545 14.6716 301.873 14 301.045 14C300.216 14 299.545 14.6716 299.545 15.5C299.545 16.3284 300.216 17 301.045 17Z" fill="#4D72FF"/>
<path d="M301.045 31C301.873 31 302.545 30.3284 302.545 29.5C302.545 28.6716 301.873 28 301.045 28C300.216 28 299.545 28.6716 299.545 29.5C299.545 30.3284 300.216 31 301.045 31Z" fill="#4D72FF"/>
<path d="M301.045 45C301.873 45 302.545 44.3284 302.545 43.5C302.545 42.6716 301.873 42 301.045 42C300.216 42 299.545 42.6716 299.545 43.5C299.545 44.3284 300.216 45 301.045 45Z" fill="#4D72FF"/>
<path d="M313.045 3C313.873 3 314.545 2.32843 314.545 1.5C314.545 0.671573 313.873 0 313.045 0C312.216 0 311.545 0.671573 311.545 1.5C311.545 2.32843 312.216 3 313.045 3Z" fill="#4D72FF"/>
<path d="M313.045 17C313.873 17 314.545 16.3284 314.545 15.5C314.545 14.6716 313.873 14 313.045 14C312.216 14 311.545 14.6716 311.545 15.5C311.545 16.3284 312.216 17 313.045 17Z" fill="#4D72FF"/>
<path d="M313.045 31C313.873 31 314.545 30.3284 314.545 29.5C314.545 28.6716 313.873 28 313.045 28C312.216 28 311.545 28.6716 311.545 29.5C311.545 30.3284 312.216 31 313.045 31Z" fill="#4D72FF"/>
<path d="M313.045 45C313.873 45 314.545 44.3284 314.545 43.5C314.545 42.6716 313.873 42 313.045 42C312.216 42 311.545 42.6716 311.545 43.5C311.545 44.3284 312.216 45 313.045 45Z" fill="#4D72FF"/>
<path d="M325.045 3C325.873 3 326.545 2.32843 326.545 1.5C326.545 0.671573 325.873 0 325.045 0C324.216 0 323.545 0.671573 323.545 1.5C323.545 2.32843 324.216 3 325.045 3Z" fill="#4D72FF"/>
<path d="M325.045 17C325.873 17 326.545 16.3284 326.545 15.5C326.545 14.6716 325.873 14 325.045 14C324.216 14 323.545 14.6716 323.545 15.5C323.545 16.3284 324.216 17 325.045 17Z" fill="#4D72FF"/>
<path d="M325.045 31C325.873 31 326.545 30.3284 326.545 29.5C326.545 28.6716 325.873 28 325.045 28C324.216 28 323.545 28.6716 323.545 29.5C323.545 30.3284 324.216 31 325.045 31Z" fill="#4D72FF"/>
<path d="M325.045 45C325.873 45 326.545 44.3284 326.545 43.5C326.545 42.6716 325.873 42 325.045 42C324.216 42 323.545 42.6716 323.545 43.5C323.545 44.3284 324.216 45 325.045 45Z" fill="#4D72FF"/>
<path d="M337.045 3C337.873 3 338.545 2.32843 338.545 1.5C338.545 0.671573 337.873 0 337.045 0C336.216 0 335.545 0.671573 335.545 1.5C335.545 2.32843 336.216 3 337.045 3Z" fill="#4D72FF"/>
<path d="M337.045 17C337.873 17 338.545 16.3284 338.545 15.5C338.545 14.6716 337.873 14 337.045 14C336.216 14 335.545 14.6716 335.545 15.5C335.545 16.3284 336.216 17 337.045 17Z" fill="#4D72FF"/>
<path d="M337.045 31C337.873 31 338.545 30.3284 338.545 29.5C338.545 28.6716 337.873 28 337.045 28C336.216 28 335.545 28.6716 335.545 29.5C335.545 30.3284 336.216 31 337.045 31Z" fill="#4D72FF"/>
<path d="M337.045 45C337.873 45 338.545 44.3284 338.545 43.5C338.545 42.6716 337.873 42 337.045 42C336.216 42 335.545 42.6716 335.545 43.5C335.545 44.3284 336.216 45 337.045 45Z" fill="#4D72FF"/>
<path d="M349.045 3C349.873 3 350.545 2.32843 350.545 1.5C350.545 0.671573 349.873 0 349.045 0C348.216 0 347.545 0.671573 347.545 1.5C347.545 2.32843 348.216 3 349.045 3Z" fill="#4D72FF"/>
<path d="M349.045 17C349.873 17 350.545 16.3284 350.545 15.5C350.545 14.6716 349.873 14 349.045 14C348.216 14 347.545 14.6716 347.545 15.5C347.545 16.3284 348.216 17 349.045 17Z" fill="#4D72FF"/>
<path d="M349.045 31C349.873 31 350.545 30.3284 350.545 29.5C350.545 28.6716 349.873 28 349.045 28C348.216 28 347.545 28.6716 347.545 29.5C347.545 30.3284 348.216 31 349.045 31Z" fill="#4D72FF"/>
<path d="M349.045 45C349.873 45 350.545 44.3284 350.545 43.5C350.545 42.6716 349.873 42 349.045 42C348.216 42 347.545 42.6716 347.545 43.5C347.545 44.3284 348.216 45 349.045 45Z" fill="#4D72FF"/>
<path d="M361.045 3C361.873 3 362.545 2.32843 362.545 1.5C362.545 0.671573 361.873 0 361.045 0C360.216 0 359.545 0.671573 359.545 1.5C359.545 2.32843 360.216 3 361.045 3Z" fill="#4D72FF"/>
<path d="M361.045 17C361.873 17 362.545 16.3284 362.545 15.5C362.545 14.6716 361.873 14 361.045 14C360.216 14 359.545 14.6716 359.545 15.5C359.545 16.3284 360.216 17 361.045 17Z" fill="#4D72FF"/>
<path d="M361.045 31C361.873 31 362.545 30.3284 362.545 29.5C362.545 28.6716 361.873 28 361.045 28C360.216 28 359.545 28.6716 359.545 29.5C359.545 30.3284 360.216 31 361.045 31Z" fill="#4D72FF"/>
<path d="M361.045 45C361.873 45 362.545 44.3284 362.545 43.5C362.545 42.6716 361.873 42 361.045 42C360.216 42 359.545 42.6716 359.545 43.5C359.545 44.3284 360.216 45 361.045 45Z" fill="#4D72FF"/>
<path d="M373.045 3C373.873 3 374.545 2.32843 374.545 1.5C374.545 0.671573 373.873 0 373.045 0C372.216 0 371.545 0.671573 371.545 1.5C371.545 2.32843 372.216 3 373.045 3Z" fill="#4D72FF"/>
<path d="M373.045 17C373.873 17 374.545 16.3284 374.545 15.5C374.545 14.6716 373.873 14 373.045 14C372.216 14 371.545 14.6716 371.545 15.5C371.545 16.3284 372.216 17 373.045 17Z" fill="#4D72FF"/>
<path d="M373.045 31C373.873 31 374.545 30.3284 374.545 29.5C374.545 28.6716 373.873 28 373.045 28C372.216 28 371.545 28.6716 371.545 29.5C371.545 30.3284 372.216 31 373.045 31Z" fill="#4D72FF"/>
<path d="M373.045 45C373.873 45 374.545 44.3284 374.545 43.5C374.545 42.6716 373.873 42 373.045 42C372.216 42 371.545 42.6716 371.545 43.5C371.545 44.3284 372.216 45 373.045 45Z" fill="#4D72FF"/>
<path d="M385.045 3C385.873 3 386.545 2.32843 386.545 1.5C386.545 0.671573 385.873 0 385.045 0C384.216 0 383.545 0.671573 383.545 1.5C383.545 2.32843 384.216 3 385.045 3Z" fill="#4D72FF"/>
<path d="M385.045 17C385.873 17 386.545 16.3284 386.545 15.5C386.545 14.6716 385.873 14 385.045 14C384.216 14 383.545 14.6716 383.545 15.5C383.545 16.3284 384.216 17 385.045 17Z" fill="#4D72FF"/>
<path d="M385.045 31C385.873 31 386.545 30.3284 386.545 29.5C386.545 28.6716 385.873 28 385.045 28C384.216 28 383.545 28.6716 383.545 29.5C383.545 30.3284 384.216 31 385.045 31Z" fill="#4D72FF"/>
<path d="M385.045 45C385.873 45 386.545 44.3284 386.545 43.5C386.545 42.6716 385.873 42 385.045 42C384.216 42 383.545 42.6716 383.545 43.5C383.545 44.3284 384.216 45 385.045 45Z" fill="#4D72FF"/>
<path d="M37.0449 268.5C111.045 204.5 196.045 156.5 308.045 151.5" stroke="#1B2F59"/>
<path d="M0.0449219 344.5C121.045 333.5 245.045 339.5 349.045 424.5" stroke="#16264A"/>
<path d="M51.0449 202.5C53.2541 202.5 55.0449 200.709 55.0449 198.5C55.0449 196.291 53.2541 194.5 51.0449 194.5C48.8358 194.5 47.0449 196.291 47.0449 198.5C47.0449 200.709 48.8358 202.5 51.0449 202.5Z" fill="#4F6EFF"/>
<path d="M108.045 248.5C110.254 248.5 112.045 246.709 112.045 244.5C112.045 242.291 110.254 240.5 108.045 240.5C105.836 240.5 104.045 242.291 104.045 244.5C104.045 246.709 105.836 248.5 108.045 248.5Z" fill="#4564E7"/>
<path d="M51.0449 198.5L108.045 244.5" stroke="#293D6C"/>
<path d="M350.045 37.5H117.045C107.104 37.5 99.0449 45.5589 99.0449 55.5V229.5C99.0449 239.441 107.104 247.5 117.045 247.5H350.045C359.986 247.5 368.045 239.441 368.045 229.5V55.5C368.045 45.5589 359.986 37.5 350.045 37.5Z" fill="#0A1327" stroke="#31406C" stroke-width="1.4"/>
<path d="M127.045 62.5C129.806 62.5 132.045 60.2614 132.045 57.5C132.045 54.7386 129.806 52.5 127.045 52.5C124.283 52.5 122.045 54.7386 122.045 57.5C122.045 60.2614 124.283 62.5 127.045 62.5Z" fill="#4E6EFF"/>
<path opacity="0.65" d="M147.045 62.5C149.806 62.5 152.045 60.2614 152.045 57.5C152.045 54.7386 149.806 52.5 147.045 52.5C144.283 52.5 142.045 54.7386 142.045 57.5C142.045 60.2614 144.283 62.5 147.045 62.5Z" fill="#61729E"/>
<path opacity="0.45" d="M167.045 62.5C169.806 62.5 172.045 60.2614 172.045 57.5C172.045 54.7386 169.806 52.5 167.045 52.5C164.283 52.5 162.045 54.7386 162.045 57.5C162.045 60.2614 164.283 62.5 167.045 62.5Z" fill="#61729E"/>
<path d="M120.163 101.131V99.9375L129.768 95.0455V96.9545L122.4 100.504L122.46 100.385V100.683L122.4 100.564L129.768 104.114V106.023L120.163 101.131ZM138.898 90.5114L133.976 108.797H132.365L137.287 90.5114H138.898ZM151.096 101.131L141.491 106.023V104.114L148.859 100.564L148.799 100.683V100.385L148.859 100.504L141.491 96.9545V95.0455L151.096 99.9375V101.131Z" fill="#4268FF"/>
<path d="M119.732 144.5V131.409H132.823V144.5H119.732Z" fill="#8392AC"/>
<path d="M119.935 180.868L118.963 179.896L124.867 173.956L118.963 168.016L119.935 167.044L125.839 172.984L131.707 167.044L132.679 168.016L126.775 173.956L132.679 179.896L131.707 180.868L125.839 174.964L119.935 180.868Z" fill="#8392AC"/>
<path d="M119.935 215.868L118.963 214.896L124.867 208.956L118.963 203.016L119.935 202.044L125.839 207.984L131.707 202.044L132.679 203.016L126.775 208.956L132.679 214.896L131.707 215.868L125.839 209.964L119.935 215.868Z" fill="#8392AC"/>
<path d="M169.045 84.5V221.5" stroke="#26365B"/>
<path opacity="0.8" d="M276.045 103.5H197.045C195.94 103.5 195.045 104.395 195.045 105.5C195.045 106.605 195.94 107.5 197.045 107.5H276.045C277.149 107.5 278.045 106.605 278.045 105.5C278.045 104.395 277.149 103.5 276.045 103.5Z" fill="#4268FF"/>
<path opacity="0.6" d="M316.045 103.5H292.045C290.94 103.5 290.045 104.395 290.045 105.5C290.045 106.605 290.94 107.5 292.045 107.5H316.045C317.149 107.5 318.045 106.605 318.045 105.5C318.045 104.395 317.149 103.5 316.045 103.5Z" fill="#8F6DFF"/>
<path opacity="0.7" d="M297.045 127.5H197.045C195.94 127.5 195.045 128.395 195.045 129.5C195.045 130.605 195.94 131.5 197.045 131.5H297.045C298.149 131.5 299.045 130.605 299.045 129.5C299.045 128.395 298.149 127.5 297.045 127.5Z" fill="#5A72B7"/>
<path opacity="0.55" d="M281.045 151.5H197.045C195.94 151.5 195.045 152.395 195.045 153.5C195.045 154.605 195.94 155.5 197.045 155.5H281.045C282.149 155.5 283.045 154.605 283.045 153.5C283.045 152.395 282.149 151.5 281.045 151.5Z" fill="#4268FF"/>
<path opacity="0.75" d="M307.045 175.5H197.045C195.94 175.5 195.045 176.395 195.045 177.5C195.045 178.605 195.94 179.5 197.045 179.5H307.045C308.149 179.5 309.045 178.605 309.045 177.5C309.045 176.395 308.149 175.5 307.045 175.5Z" fill="#516492"/>
<path opacity="0.5" d="M289.045 199.5H197.045C195.94 199.5 195.045 200.395 195.045 201.5C195.045 202.605 195.94 203.5 197.045 203.5H289.045C290.149 203.5 291.045 202.605 291.045 201.5C291.045 200.395 290.149 199.5 289.045 199.5Z" fill="#4268FF"/>
<path d="M420.045 120.5H328.045C316.999 120.5 308.045 129.454 308.045 140.5V280.5C308.045 291.546 316.999 300.5 328.045 300.5H420.045C431.091 300.5 440.045 291.546 440.045 280.5V140.5C440.045 129.454 431.091 120.5 420.045 120.5Z" fill="#0A1327" stroke="#33467C" stroke-width="1.4"/>
<path d="M396.045 178.5H350.045C345.627 178.5 342.045 182.082 342.045 186.5V225.5C342.045 229.918 345.627 233.5 350.045 233.5H396.045C400.463 233.5 404.045 229.918 404.045 225.5V186.5C404.045 182.082 400.463 178.5 396.045 178.5Z" fill="#213A8F"/>
<path d="M347.045 231.5L365.045 211.5L380.045 228.5L395.045 203.5L404.045 231.5H347.045Z" fill="#5072FF"/>
<path opacity="0.7" d="M394.545 254.5H341.545C340.164 254.5 339.045 255.619 339.045 257C339.045 258.381 340.164 259.5 341.545 259.5H394.545C395.926 259.5 397.045 258.381 397.045 257C397.045 255.619 395.926 254.5 394.545 254.5Z" fill="#52699D"/>
<path opacity="0.48" d="M380.545 269.5H341.545C340.164 269.5 339.045 270.619 339.045 272C339.045 273.381 340.164 274.5 341.545 274.5H380.545C381.926 274.5 383.045 273.381 383.045 272C383.045 270.619 381.926 269.5 380.545 269.5Z" fill="#52699D"/>
<path opacity="0.38" d="M388.545 284.5H341.545C340.164 284.5 339.045 285.619 339.045 287C339.045 288.381 340.164 289.5 341.545 289.5H388.545C389.926 289.5 391.045 288.381 391.045 287C391.045 285.619 389.926 284.5 388.545 284.5Z" fill="#52699D"/>
</svg>
